<svg width="1000" height="1000" viewBox="0 0 1000 1000" fill="none" xmlns="http://www.w3.org/2000/svg">
<path d="M713.5 400.4C721.9 401.6 730.3 402.2 738.6 402.2C825.3 402.2 901.2 338.3 913.8 250.1C927.6 153.4 860.1 63.6 763.5 49.9C666.8 36.1 577 103.6 563.3 200.2C549.4 296.8 616.9 386.7 713.5 400.4ZM602.8 205.8C612.5 137.5 671.3 88 738.4 88C744.8 88 751.3 88.5 757.8 89.4C832.6 100.1 884.8 169.6 874.2 244.4C863.5 319.2 794 371.4 719.2 360.8C644.3 350.2 592.1 280.6 602.8 205.8Z" fill="#9FDBF3"/>
<path d="M666 234.7C667 234.8 667.9 234.9 668.8 234.9C678.6 234.9 687.2 227.7 688.6 217.7C690.6 203.7 698.6 191.4 710.6 183.9C720 178.1 722.8 165.7 717 156.3C711.2 146.9 698.8 144.1 689.4 149.9C667.4 163.6 652.6 186.3 648.9 212C647.5 223 655.1 233.1 666 234.7ZM367.7 436.2C368.7 436.2 369.7 436.1 370.7 436C379.3 434.7 388.1 434 396.9 434C407.9 434 416.9 425 416.9 414C416.9 403 407.9 394 396.9 394C386.1 394 375.2 394.8 364.6 396.4C353.7 398.1 346.2 408.3 347.8 419.2C349.5 429.1 358 436.2 367.7 436.2ZM204.4 626.6C215.4 626.6 224.4 617.6 224.4 606.6C224.4 555.5 246.9 507.3 286 474.4C294.5 467.3 295.6 454.7 288.4 446.2C281.3 437.7 268.7 436.6 260.2 443.8C212 484.3 184.3 543.7 184.3 606.6C184.4 617.6 193.4 626.6 204.4 626.6ZM371.5 177.1C371.5 217 404 249.5 443.9 249.5C483.8 249.5 516.3 217 516.3 177.1C516.3 137.2 483.8 104.7 443.9 104.7C404 104.7 371.5 137.1 371.5 177.1ZM476.4 177.1C476.4 195 461.8 209.5 444 209.5C426.1 209.5 411.6 194.9 411.6 177.1C411.6 159.2 426.2 144.7 444 144.7C461.9 144.6 476.4 159.2 476.4 177.1ZM836.2 417.4C783 417.4 739.7 460.7 739.7 513.9C739.7 567.1 783 610.4 836.2 610.4C889.4 610.4 932.7 567.1 932.7 513.9C932.7 460.7 889.4 417.4 836.2 417.4ZM836.2 570.4C805 570.4 779.7 545 779.7 513.9C779.7 482.8 805.1 457.4 836.2 457.4C867.4 457.4 892.7 482.8 892.7 513.9C892.7 545 867.4 570.4 836.2 570.4Z" fill="#9FDBF3"/>
<path d="M697 656.5C699.7 640.2 701.1 623.5 701.1 606.6C701.1 525.4 669.5 449 612 391.6C554.6 334.2 478.2 302.5 397 302.5C315.8 302.5 239.4 334.1 182 391.6C124.6 449 92.9 525.4 92.9 606.6C92.9 687.8 124.5 764.2 182 821.6C239.5 879 315.8 910.7 397 910.7C451.2 910.7 503.3 896.6 549 870.1C550 871.6 551.1 873.1 552.2 874.5C574.5 904.1 606.9 923.3 643.6 928.6C650.2 929.5 656.9 930 663.4 930C693.2 930 722.1 920.4 746.4 902.2C776 879.9 795.2 847.5 800.5 810.8C805.8 774.1 796.3 737.6 774.1 707.9C754.8 682 727.8 664.2 697 656.5ZM760.9 805C757.2 831.1 743.5 854.2 722.4 870.1C701.3 886 675.3 892.6 649.2 888.9C595.3 881.2 557.7 831.1 565.3 777.2C569 751.1 582.7 728 603.8 712.1C621.1 699.1 641.7 692.3 662.9 692.3C667.6 692.3 672.3 692.6 677 693.3C703.1 697 726.2 710.7 742.1 731.8C758 752.9 764.7 778.9 760.9 805ZM583.7 419.9C633.6 469.7 661 536 661 606.6C661 622.1 659.7 637.5 657.1 652.4C629.3 653.6 602.6 663 579.8 680.1C550.2 702.4 531 734.8 525.7 771.5C522.7 792.9 524.6 814.2 531.1 834.1C490.9 857.9 444.9 870.6 396.9 870.6C326.4 870.6 260.1 843.1 210.2 793.3C160.3 743.5 132.9 677.1 132.9 606.6C132.9 536.1 160.4 469.8 210.2 419.9C260.1 370 326.4 342.6 396.9 342.6C467.5 342.5 533.8 370 583.7 419.9Z" fill="#9FDBF3"/>
<path d="M607.7 803.2C608.7 803.3 609.6 803.4 610.5 803.4C620.3 803.4 628.9 796.2 630.3 786.2C631.6 777.1 636.8 769 644.7 764.1C654.1 758.3 656.9 745.9 651.1 736.5C645.3 727.1 632.9 724.3 623.5 730.1C605.6 741.3 593.6 759.6 590.7 780.5C589.1 791.5 596.7 801.6 607.7 803.2Z" fill="#9FDBF3"/>
</svg>
