<svg width="968" height="735" viewBox="0 0 968 735" fill="none" xmlns="http://www.w3.org/2000/svg">
<path d="M504.206 570.177C503.864 570.177 503.519 570.112 503.19 569.979C502.167 569.565 501.497 568.572 501.497 567.468V521.488C501.497 520.384 502.167 519.391 503.19 518.977C504.214 518.563 505.385 518.811 506.152 519.603L528.41 542.594C529.427 543.644 529.427 545.311 528.41 546.362L506.152 569.352C505.632 569.89 504.926 570.177 504.206 570.177V570.177Z" fill="#FDBF00"/>
<path d="M501.498 544.478V567.468C501.498 568.572 502.167 569.565 503.19 569.979C503.519 570.112 503.864 570.177 504.206 570.177C504.926 570.177 505.632 569.89 506.153 569.352L528.411 546.362C528.919 545.837 529.174 545.158 529.174 544.478H501.498Z" fill="#FF8856"/>
<path d="M420.954 634.231C420.622 634.231 420.286 634.17 419.965 634.044C418.928 633.637 418.246 632.637 418.246 631.522V585.541C418.246 584.428 418.928 583.427 419.965 583.02C421.003 582.612 422.183 582.883 422.94 583.699L444.269 606.69C445.233 607.729 445.233 609.335 444.269 610.374L422.94 633.364C422.418 633.928 421.694 634.231 420.954 634.231V634.231Z" fill="#FF7038"/>
<path d="M418.246 608.514V631.522C418.246 632.636 418.928 633.637 419.965 634.044C420.287 634.17 420.622 634.231 420.954 634.231C421.694 634.231 422.418 633.928 422.94 633.365L444.269 610.374C444.755 609.85 444.995 609.181 444.991 608.514H418.246Z" fill="#FF1F3D"/>
<path d="M420.954 506.484C420.622 506.484 420.286 506.423 419.965 506.297C418.928 505.89 418.246 504.889 418.246 503.775V457.795C418.246 456.681 418.928 455.68 419.965 455.273C421.003 454.866 422.183 455.136 422.94 455.952L444.269 478.943C445.233 479.982 445.233 481.588 444.269 482.627L422.94 505.618C422.418 506.181 421.694 506.484 420.954 506.484V506.484Z" fill="#7DD5F4"/>
<path d="M418.246 480.785V503.776C418.246 504.889 418.928 505.89 419.965 506.297C420.287 506.423 420.622 506.484 420.954 506.484C421.694 506.484 422.418 506.181 422.94 505.618L444.269 482.628C444.751 482.108 444.992 481.447 444.992 480.785H418.246V480.785Z" fill="#4793FF"/>
<path d="M563.372 573.678C546.615 573.678 531.521 562.903 523.98 545.558C523.681 544.869 523.681 544.087 523.98 543.398C531.521 526.053 546.616 515.278 563.372 515.278C580.129 515.278 595.223 526.053 602.764 543.398C603.064 544.087 603.064 544.87 602.764 545.559C595.223 562.903 580.128 573.678 563.372 573.678V573.678Z" fill="#FFDE46"/>
<path d="M523.755 544.478C523.755 544.846 523.83 545.213 523.98 545.558C531.521 562.903 546.615 573.678 563.372 573.678C580.128 573.678 595.223 562.903 602.764 545.558C602.914 545.213 602.989 544.846 602.989 544.478H523.755V544.478Z" fill="#FFCD00"/>
<path d="M578.609 549.896C581.601 549.896 584.027 547.47 584.027 544.478C584.027 541.486 581.601 539.06 578.609 539.06C575.617 539.06 573.192 541.486 573.192 544.478C573.192 547.47 575.617 549.896 578.609 549.896Z" fill="#00347B"/>
<path d="M477.385 637.12C461.384 637.12 446.978 626.571 439.789 609.588C439.503 608.913 439.503 608.151 439.789 607.476C446.977 590.493 461.384 579.943 477.385 579.943C493.387 579.943 507.793 590.493 514.982 607.476C515.268 608.151 515.268 608.913 514.982 609.588C507.794 626.571 493.387 637.12 477.385 637.12V637.12Z" fill="#FF936B"/>
<path d="M439.575 608.514C439.573 608.879 439.643 609.245 439.789 609.588C446.978 626.571 461.384 637.12 477.385 637.12C493.387 637.12 507.793 626.571 514.982 609.588C515.127 609.245 515.198 608.879 515.196 608.514H439.575Z" fill="#FF6378"/>
<path d="M490.662 613.95C493.654 613.95 496.08 611.524 496.08 608.532C496.08 605.54 493.654 603.114 490.662 603.114C487.67 603.114 485.245 605.54 485.245 608.532C485.245 611.524 487.67 613.95 490.662 613.95Z" fill="#00347B"/>
<path d="M477.385 509.373C461.384 509.373 446.978 498.824 439.789 481.841C439.503 481.166 439.503 480.404 439.789 479.729C446.978 462.746 461.384 452.197 477.385 452.197C493.387 452.197 507.793 462.746 514.982 479.729C515.268 480.404 515.268 481.166 514.982 481.841C507.794 498.824 493.387 509.373 477.385 509.373V509.373Z" fill="#BCFBFF"/>
<path d="M439.574 480.785C439.574 481.144 439.646 481.503 439.789 481.841C446.977 498.824 461.384 509.373 477.385 509.373C493.387 509.373 507.793 498.824 514.982 481.841C515.125 481.504 515.196 481.144 515.196 480.785H439.574Z" fill="#7DD5F4"/>
<path d="M490.662 486.203C493.654 486.203 496.08 483.777 496.08 480.785C496.08 477.793 493.654 475.367 490.662 475.367C487.67 475.367 485.245 477.793 485.245 480.785C485.245 483.777 487.67 486.203 490.662 486.203Z" fill="#00347B"/>
<path fill-rule="evenodd" clip-rule="evenodd" d="M485.245 480.785C485.245 483.769 487.679 486.203 490.663 486.203C493.647 486.203 496.08 483.769 496.08 480.785H485.245Z" fill="#001737"/>
<path fill-rule="evenodd" clip-rule="evenodd" d="M578.609 549.896C581.593 549.896 584.027 547.462 584.027 544.478H573.192C573.192 547.462 575.626 549.896 578.609 549.896Z" fill="#001737"/>
<path fill-rule="evenodd" clip-rule="evenodd" d="M485.245 608.514C485.245 608.52 485.244 608.526 485.244 608.532C485.244 611.516 487.678 613.95 490.662 613.95C493.646 613.95 496.079 611.516 496.079 608.532C496.079 608.526 496.079 608.52 496.079 608.514H485.245Z" fill="#001737"/>
<g clip-path="url(#clip0)">
<path d="M279.281 436.179C278.94 436.179 278.595 436.115 278.265 435.981C277.242 435.568 276.573 434.574 276.573 433.471V387.49C276.573 386.386 277.242 385.393 278.265 384.979C279.29 384.565 280.46 384.814 281.228 385.606L303.486 408.596C304.502 409.646 304.502 411.314 303.486 412.365L281.228 435.355C280.708 435.892 280.001 436.179 279.281 436.179V436.179Z" fill="#FDBF00"/>
<path d="M276.573 410.48V433.47C276.573 434.574 277.243 435.568 278.266 435.981C278.595 436.115 278.94 436.179 279.282 436.179C280.001 436.179 280.708 435.892 281.229 435.355L303.486 412.365C303.995 411.839 304.249 411.16 304.249 410.48H276.573Z" fill="#FF8856"/>
<path d="M196.029 500.234C195.697 500.234 195.362 500.173 195.041 500.046C194.004 499.64 193.321 498.639 193.321 497.525V451.544C193.321 450.43 194.004 449.429 195.041 449.023C196.079 448.615 197.259 448.885 198.016 449.702L219.345 472.692C220.309 473.731 220.309 475.338 219.345 476.377L198.016 499.367C197.493 499.931 196.769 500.234 196.029 500.234V500.234Z" fill="#FF7038"/>
<path d="M193.321 474.517V497.525C193.321 498.639 194.004 499.639 195.041 500.046C195.362 500.172 195.697 500.233 196.029 500.233C196.769 500.233 197.493 499.93 198.016 499.367L219.345 476.377C219.831 475.853 220.071 475.184 220.067 474.517H193.321Z" fill="#FF1F3D"/>
<path d="M196.029 372.487C195.697 372.487 195.362 372.426 195.041 372.299C194.004 371.893 193.321 370.892 193.321 369.778V323.797C193.321 322.683 194.004 321.683 195.041 321.276C196.079 320.868 197.259 321.139 198.016 321.955L219.345 344.945C220.309 345.984 220.309 347.591 219.345 348.63L198.016 371.62C197.493 372.184 196.769 372.487 196.029 372.487V372.487Z" fill="#7DD5F4"/>
<path d="M193.321 346.787V369.778C193.321 370.892 194.004 371.893 195.041 372.299C195.362 372.426 195.697 372.487 196.029 372.487C196.769 372.487 197.493 372.184 198.016 371.62L219.345 348.63C219.826 348.111 220.068 347.449 220.068 346.788H193.321V346.787Z" fill="#4793FF"/>
<path d="M338.448 439.681C321.691 439.681 306.597 428.906 299.056 411.561C298.756 410.872 298.756 410.09 299.056 409.401C306.597 392.056 321.691 381.281 338.448 381.281C355.204 381.281 370.298 392.056 377.84 409.401C378.139 410.09 378.139 410.872 377.84 411.561C370.298 428.906 355.204 439.681 338.448 439.681V439.681Z" fill="#FFDE46"/>
<path d="M298.831 410.48C298.831 410.848 298.906 411.216 299.055 411.56C306.597 428.905 321.691 439.68 338.448 439.68C355.204 439.68 370.298 428.905 377.84 411.56C377.989 411.216 378.064 410.848 378.064 410.48H298.831V410.48Z" fill="#FFCD00"/>
<path d="M353.685 415.898C356.677 415.898 359.103 413.472 359.103 410.48C359.103 407.488 356.677 405.063 353.685 405.063C350.693 405.063 348.267 407.488 348.267 410.48C348.267 413.472 350.693 415.898 353.685 415.898Z" fill="#00347B"/>
<path d="M252.461 503.123C236.459 503.123 222.053 492.573 214.864 475.591C214.578 474.916 214.578 474.153 214.864 473.478C222.053 456.496 236.459 445.946 252.461 445.946C268.463 445.946 282.869 456.496 290.058 473.479C290.343 474.154 290.343 474.916 290.058 475.591C282.869 492.573 268.463 503.123 252.461 503.123V503.123Z" fill="#FF936B"/>
<path d="M214.651 474.517C214.648 474.882 214.719 475.247 214.865 475.591C222.053 492.573 236.459 503.123 252.461 503.123C268.463 503.123 282.869 492.573 290.058 475.591C290.203 475.247 290.273 474.882 290.271 474.517H214.651Z" fill="#FF6378"/>
<path d="M265.738 479.952C268.73 479.952 271.155 477.527 271.155 474.534C271.155 471.542 268.73 469.117 265.738 469.117C262.746 469.117 260.32 471.542 260.32 474.534C260.32 477.527 262.746 479.952 265.738 479.952Z" fill="#00347B"/>
<path d="M252.461 375.376C236.459 375.376 222.053 364.826 214.864 347.844C214.578 347.169 214.578 346.406 214.864 345.731C222.053 328.749 236.459 318.199 252.461 318.199C268.463 318.199 282.869 328.749 290.058 345.732C290.343 346.407 290.343 347.169 290.058 347.844C282.869 364.826 268.463 375.376 252.461 375.376V375.376Z" fill="#BCFBFF"/>
<path d="M214.65 346.787C214.65 347.147 214.721 347.506 214.864 347.844C222.053 364.826 236.459 375.376 252.461 375.376C268.463 375.376 282.869 364.826 290.058 347.844C290.201 347.506 290.272 347.147 290.272 346.787H214.65Z" fill="#7DD5F4"/>
<path d="M265.738 352.205C268.73 352.205 271.155 349.78 271.155 346.787C271.155 343.795 268.73 341.37 265.738 341.37C262.746 341.37 260.32 343.795 260.32 346.787C260.32 349.78 262.746 352.205 265.738 352.205Z" fill="#00347B"/>
<path fill-rule="evenodd" clip-rule="evenodd" d="M260.321 346.787C260.321 349.772 262.754 352.205 265.738 352.205C268.722 352.205 271.156 349.771 271.156 346.787H260.321Z" fill="#001737"/>
<path fill-rule="evenodd" clip-rule="evenodd" d="M353.685 415.898C356.669 415.898 359.103 413.464 359.103 410.48H348.267C348.267 413.464 350.701 415.898 353.685 415.898Z" fill="#001737"/>
<path fill-rule="evenodd" clip-rule="evenodd" d="M260.321 474.517C260.321 474.523 260.32 474.528 260.32 474.534C260.32 477.519 262.753 479.952 265.737 479.952C268.721 479.952 271.155 477.519 271.155 474.534C271.155 474.528 271.154 474.523 271.154 474.517H260.321Z" fill="#001737"/>
</g>
<path d="M517.569 308.322C517.228 308.322 516.883 308.257 516.553 308.124C515.53 307.71 514.861 306.717 514.861 305.613V259.633C514.861 258.529 515.53 257.536 516.553 257.122C517.578 256.708 518.749 256.956 519.516 257.748L541.774 280.739C542.79 281.789 542.79 283.456 541.774 284.507L519.516 307.497C518.996 308.035 518.289 308.322 517.569 308.322V308.322Z" fill="#FDBF00"/>
<path d="M514.861 282.623V305.613C514.861 306.717 515.531 307.71 516.554 308.124C516.883 308.257 517.228 308.322 517.57 308.322C518.29 308.322 518.996 308.035 519.517 307.497L541.774 284.507C542.283 283.982 542.537 283.303 542.537 282.623H514.861Z" fill="#FF8856"/>
<path d="M434.317 372.376C433.985 372.376 433.65 372.315 433.329 372.189C432.292 371.782 431.609 370.782 431.609 369.667V323.686C431.609 322.573 432.292 321.572 433.329 321.165C434.367 320.757 435.547 321.028 436.304 321.844L457.633 344.835C458.597 345.874 458.597 347.48 457.633 348.519L436.304 371.509C435.781 372.073 435.057 372.376 434.317 372.376V372.376Z" fill="#FF7038"/>
<path d="M431.609 346.659V369.667C431.609 370.781 432.292 371.782 433.329 372.188C433.65 372.315 433.985 372.376 434.317 372.376C435.057 372.376 435.781 372.073 436.304 371.509L457.633 348.519C458.119 347.995 458.359 347.326 458.355 346.659H431.609Z" fill="#FF1F3D"/>
<path d="M434.317 244.629C433.985 244.629 433.65 244.568 433.329 244.442C432.292 244.035 431.609 243.034 431.609 241.92V195.94C431.609 194.826 432.292 193.825 433.329 193.418C434.367 193.011 435.547 193.281 436.304 194.097L457.633 217.088C458.597 218.127 458.597 219.733 457.633 220.772L436.304 243.762C435.781 244.326 435.057 244.629 434.317 244.629V244.629Z" fill="#7DD5F4"/>
<path d="M431.609 218.93V241.92C431.609 243.034 432.292 244.035 433.329 244.442C433.65 244.568 433.985 244.629 434.317 244.629C435.057 244.629 435.781 244.326 436.304 243.763L457.633 220.773C458.115 220.253 458.356 219.592 458.356 218.93H431.609V218.93Z" fill="#4793FF"/>
<path d="M576.736 311.823C559.979 311.823 544.885 301.048 537.344 283.703C537.044 283.014 537.044 282.232 537.344 281.543C544.885 264.198 559.979 253.423 576.736 253.423C593.492 253.423 608.587 264.198 616.128 281.543C616.427 282.232 616.427 283.015 616.128 283.704C608.587 301.048 593.492 311.823 576.736 311.823V311.823Z" fill="#FFDE46"/>
<path d="M537.119 282.623C537.119 282.991 537.194 283.358 537.343 283.703C544.885 301.048 559.979 311.823 576.736 311.823C593.492 311.823 608.586 301.048 616.128 283.703C616.277 283.358 616.352 282.991 616.352 282.622H537.119V282.623Z" fill="#FFCD00"/>
<path d="M591.973 288.041C594.965 288.041 597.391 285.615 597.391 282.623C597.391 279.631 594.965 277.205 591.973 277.205C588.981 277.205 586.555 279.631 586.555 282.623C586.555 285.615 588.981 288.041 591.973 288.041Z" fill="#00347B"/>
<path d="M490.749 375.265C474.747 375.265 460.341 364.716 453.152 347.733C452.866 347.058 452.866 346.296 453.152 345.621C460.341 328.638 474.747 318.089 490.749 318.089C506.751 318.089 521.157 328.638 528.346 345.621C528.631 346.296 528.631 347.058 528.346 347.733C521.157 364.716 506.751 375.265 490.749 375.265V375.265Z" fill="#FF936B"/>
<path d="M452.939 346.659C452.936 347.024 453.007 347.39 453.153 347.733C460.341 364.716 474.748 375.265 490.749 375.265C506.751 375.265 521.157 364.716 528.346 347.733C528.491 347.39 528.561 347.024 528.559 346.659H452.939Z" fill="#FF6378"/>
<path d="M504.026 352.095C507.018 352.095 509.444 349.669 509.444 346.677C509.444 343.685 507.018 341.259 504.026 341.259C501.034 341.259 498.608 343.685 498.608 346.677C498.608 349.669 501.034 352.095 504.026 352.095Z" fill="#00347B"/>
<path d="M490.749 247.518C474.747 247.518 460.341 236.969 453.152 219.986C452.866 219.311 452.866 218.549 453.152 217.874C460.341 200.891 474.747 190.342 490.749 190.342C506.751 190.342 521.157 200.891 528.346 217.874C528.631 218.549 528.631 219.311 528.346 219.986C521.157 236.969 506.751 247.518 490.749 247.518V247.518Z" fill="#BCFBFF"/>
<path d="M452.938 218.93C452.938 219.289 453.009 219.648 453.152 219.986C460.341 236.969 474.747 247.518 490.749 247.518C506.751 247.518 521.157 236.969 528.346 219.986C528.489 219.649 528.56 219.289 528.56 218.93H452.938Z" fill="#7DD5F4"/>
<path d="M504.026 224.348C507.018 224.348 509.444 221.922 509.444 218.93C509.444 215.938 507.018 213.512 504.026 213.512C501.034 213.512 498.608 215.938 498.608 218.93C498.608 221.922 501.034 224.348 504.026 224.348Z" fill="#00347B"/>
<path fill-rule="evenodd" clip-rule="evenodd" d="M498.609 218.93C498.609 221.914 501.042 224.348 504.026 224.348C507.011 224.348 509.444 221.914 509.444 218.93H498.609Z" fill="#001737"/>
<path fill-rule="evenodd" clip-rule="evenodd" d="M591.973 288.041C594.957 288.041 597.391 285.607 597.391 282.623H586.555C586.555 285.607 588.989 288.041 591.973 288.041Z" fill="#001737"/>
<path fill-rule="evenodd" clip-rule="evenodd" d="M498.609 346.659C498.609 346.665 498.608 346.671 498.608 346.677C498.608 349.661 501.041 352.095 504.025 352.095C507.009 352.095 509.443 349.661 509.443 346.677C509.443 346.671 509.442 346.665 509.442 346.659H498.609Z" fill="#001737"/>
<path d="M751.252 595.821C750.911 595.821 750.566 595.756 750.236 595.623C749.214 595.209 748.544 594.216 748.544 593.112V547.131C748.544 546.028 749.214 545.034 750.236 544.621C751.261 544.206 752.432 544.455 753.199 545.247L775.457 568.237C776.474 569.288 776.474 570.955 775.457 572.006L753.199 594.996C752.679 595.533 751.972 595.821 751.252 595.821V595.821Z" fill="#FDBF00"/>
<path d="M748.544 570.122V593.112C748.544 594.216 749.214 595.209 750.237 595.623C750.566 595.756 750.911 595.821 751.253 595.821C751.973 595.821 752.679 595.534 753.2 594.996L775.458 572.006C775.966 571.481 776.22 570.801 776.22 570.122H748.544Z" fill="#FF8856"/>
<path d="M668 659.875C667.668 659.875 667.333 659.814 667.012 659.688C665.975 659.281 665.292 658.28 665.292 657.166V611.185C665.292 610.071 665.975 609.071 667.012 608.664C668.05 608.256 669.23 608.527 669.987 609.343L691.316 632.333C692.28 633.372 692.28 634.979 691.316 636.018L669.987 659.008C669.464 659.572 668.74 659.875 668 659.875V659.875Z" fill="#FF7038"/>
<path d="M665.292 634.158V657.166C665.292 658.28 665.975 659.281 667.012 659.687C667.333 659.814 667.668 659.875 668 659.875C668.74 659.875 669.464 659.572 669.987 659.008L691.316 636.018C691.802 635.494 692.042 634.825 692.038 634.158H665.292Z" fill="#FF1F3D"/>
<path d="M668 532.128C667.668 532.128 667.333 532.067 667.012 531.941C665.975 531.534 665.292 530.533 665.292 529.419V483.439C665.292 482.325 665.975 481.324 667.012 480.917C668.05 480.509 669.23 480.78 669.987 481.596L691.316 504.586C692.28 505.625 692.28 507.232 691.316 508.271L669.987 531.261C669.464 531.825 668.74 532.128 668 532.128V532.128Z" fill="#7DD5F4"/>
<path d="M665.292 506.429V529.419C665.292 530.533 665.975 531.534 667.012 531.941C667.333 532.067 667.668 532.128 668 532.128C668.74 532.128 669.464 531.825 669.987 531.262L691.316 508.271C691.798 507.752 692.039 507.09 692.039 506.429H665.292V506.429Z" fill="#4793FF"/>
<path d="M810.419 599.322C793.662 599.322 778.568 588.547 771.027 571.202C770.727 570.513 770.727 569.731 771.027 569.042C778.568 551.697 793.662 540.922 810.419 540.922C827.175 540.922 842.27 551.697 849.811 569.042C850.11 569.731 850.11 570.513 849.811 571.202C842.27 588.547 827.175 599.322 810.419 599.322V599.322Z" fill="#FFDE46"/>
<path d="M770.802 570.122C770.802 570.489 770.877 570.857 771.027 571.202C778.568 588.546 793.662 599.321 810.419 599.321C827.175 599.321 842.27 588.546 849.811 571.202C849.961 570.857 850.035 570.489 850.035 570.121H770.802V570.122Z" fill="#FFCD00"/>
<path d="M825.656 575.539C828.648 575.539 831.074 573.114 831.074 570.122C831.074 567.13 828.648 564.704 825.656 564.704C822.664 564.704 820.238 567.13 820.238 570.122C820.238 573.114 822.664 575.539 825.656 575.539Z" fill="#00347B"/>
<path d="M724.432 662.764C708.43 662.764 694.024 652.214 686.835 635.232C686.549 634.557 686.549 633.795 686.835 633.12C694.024 616.137 708.43 605.587 724.432 605.587C740.434 605.587 754.84 616.137 762.029 633.12C762.315 633.795 762.315 634.557 762.029 635.232C754.84 652.214 740.434 662.764 724.432 662.764V662.764Z" fill="#FF936B"/>
<path d="M686.622 634.158C686.619 634.523 686.69 634.889 686.836 635.232C694.024 652.214 708.431 662.764 724.432 662.764C740.434 662.764 754.84 652.214 762.029 635.232C762.174 634.889 762.244 634.523 762.242 634.158H686.622Z" fill="#FF6378"/>
<path d="M737.709 639.593C740.701 639.593 743.127 637.168 743.127 634.176C743.127 631.184 740.701 628.758 737.709 628.758C734.717 628.758 732.291 631.184 732.291 634.176C732.291 637.168 734.717 639.593 737.709 639.593Z" fill="#00347B"/>
<path d="M724.432 535.017C708.43 535.017 694.024 524.467 686.835 507.485C686.549 506.81 686.549 506.048 686.835 505.373C694.024 488.39 708.431 477.84 724.432 477.84C740.434 477.84 754.84 488.39 762.029 505.373C762.315 506.048 762.315 506.81 762.029 507.485C754.84 524.467 740.434 535.017 724.432 535.017V535.017Z" fill="#BCFBFF"/>
<path d="M686.621 506.429C686.621 506.788 686.692 507.147 686.835 507.485C694.024 524.467 708.43 535.017 724.432 535.017C740.434 535.017 754.84 524.467 762.029 507.485C762.172 507.147 762.243 506.788 762.243 506.429H686.621Z" fill="#7DD5F4"/>
<path d="M737.709 511.846C740.701 511.846 743.127 509.421 743.127 506.429C743.127 503.437 740.701 501.011 737.709 501.011C734.717 501.011 732.291 503.437 732.291 506.429C732.291 509.421 734.717 511.846 737.709 511.846Z" fill="#00347B"/>
<path fill-rule="evenodd" clip-rule="evenodd" d="M732.292 506.429C732.292 509.413 734.725 511.846 737.709 511.846C740.694 511.846 743.127 509.412 743.127 506.429H732.292Z" fill="#001737"/>
<path fill-rule="evenodd" clip-rule="evenodd" d="M825.656 575.539C828.64 575.539 831.074 573.106 831.074 570.122H820.238C820.238 573.106 822.672 575.539 825.656 575.539Z" fill="#001737"/>
<path fill-rule="evenodd" clip-rule="evenodd" d="M732.292 634.158C732.292 634.164 732.291 634.17 732.291 634.176C732.291 637.16 734.724 639.593 737.708 639.593C740.693 639.593 743.126 637.16 743.126 634.176C743.126 634.17 743.125 634.164 743.125 634.158H732.292Z" fill="#001737"/>
<path d="M145.193 668.057C144.852 668.057 144.507 667.992 144.177 667.859C143.154 667.445 142.485 666.451 142.485 665.348V619.367C142.485 618.264 143.154 617.27 144.177 616.856C145.202 616.442 146.373 616.691 147.14 617.483L169.398 640.473C170.415 641.524 170.415 643.191 169.398 644.242L147.14 667.232C146.62 667.769 145.913 668.057 145.193 668.057V668.057Z" fill="#FDBF00"/>
<path d="M142.485 642.357V665.348C142.485 666.451 143.155 667.445 144.178 667.859C144.507 667.992 144.852 668.056 145.194 668.056C145.914 668.056 146.62 667.769 147.141 667.232L169.399 644.242C169.907 643.717 170.161 643.037 170.161 642.357H142.485Z" fill="#FF8856"/>
<path d="M61.9415 732.111C61.6092 732.111 61.2741 732.05 60.9526 731.923C59.9157 731.517 59.2334 730.516 59.2334 729.402V683.421C59.2334 682.307 59.9157 681.306 60.9526 680.9C61.991 680.492 63.1706 680.762 63.928 681.579L85.2567 704.569C86.2207 705.608 86.2207 707.215 85.2567 708.254L63.928 731.244C63.4054 731.808 62.6812 732.111 61.9415 732.111V732.111Z" fill="#FF7038"/>
<path d="M59.2334 706.394V729.402C59.2334 730.516 59.9157 731.516 60.9526 731.923C61.2744 732.05 61.6092 732.111 61.9415 732.111C62.6812 732.111 63.4054 731.808 63.928 731.244L85.2567 708.254C85.7429 707.73 85.9831 707.061 85.9791 706.394H59.2334Z" fill="#FF1F3D"/>
<path d="M61.9415 604.364C61.6092 604.364 61.2741 604.303 60.9526 604.176C59.9157 603.77 59.2334 602.769 59.2334 601.655V555.674C59.2334 554.561 59.9157 553.56 60.9526 553.153C61.991 552.745 63.1706 553.016 63.928 553.832L85.2567 576.822C86.2207 577.861 86.2207 579.468 85.2567 580.507L63.928 603.497C63.4054 604.061 62.6812 604.364 61.9415 604.364V604.364Z" fill="#7DD5F4"/>
<path d="M59.2334 578.665V601.655C59.2334 602.769 59.9157 603.77 60.9526 604.177C61.2744 604.303 61.6092 604.364 61.9415 604.364C62.6812 604.364 63.4054 604.061 63.928 603.497L85.2567 580.507C85.7385 579.988 85.9798 579.326 85.9798 578.665H59.2334V578.665Z" fill="#4793FF"/>
<path d="M204.36 671.558C187.603 671.558 172.509 660.783 164.968 643.438C164.669 642.749 164.669 641.967 164.968 641.278C172.509 623.933 187.603 613.158 204.36 613.158C221.117 613.158 236.211 623.933 243.752 641.278C244.051 641.967 244.051 642.749 243.752 643.438C236.211 660.783 221.116 671.558 204.36 671.558V671.558Z" fill="#FFDE46"/>
<path d="M164.743 642.357C164.743 642.725 164.818 643.093 164.968 643.437C172.509 660.782 187.603 671.557 204.36 671.557C221.116 671.557 236.211 660.782 243.752 643.437C243.902 643.093 243.976 642.725 243.976 642.357H164.743V642.357Z" fill="#FFCD00"/>
<path d="M219.597 647.775C222.589 647.775 225.015 645.35 225.015 642.358C225.015 639.365 222.589 636.94 219.597 636.94C216.605 636.94 214.179 639.365 214.179 642.358C214.179 645.35 216.605 647.775 219.597 647.775Z" fill="#00347B"/>
<path d="M118.373 735C102.371 735 87.9652 724.45 80.7763 707.468C80.4903 706.793 80.4903 706.031 80.7763 705.355C87.9649 688.373 102.371 677.823 118.373 677.823C134.375 677.823 148.781 688.373 155.97 705.356C156.256 706.031 156.256 706.793 155.97 707.468C148.781 724.45 134.375 735 118.373 735V735Z" fill="#FF936B"/>
<path d="M80.5628 706.394C80.5603 706.759 80.6311 707.125 80.7766 707.468C87.9652 724.45 102.372 735 118.373 735C134.375 735 148.781 724.45 155.97 707.468C156.115 707.125 156.185 706.759 156.183 706.394H80.5628Z" fill="#FF6378"/>
<path d="M131.65 711.829C134.642 711.829 137.068 709.404 137.068 706.412C137.068 703.419 134.642 700.994 131.65 700.994C128.658 700.994 126.232 703.419 126.232 706.412C126.232 709.404 128.658 711.829 131.65 711.829Z" fill="#00347B"/>
<path d="M118.373 607.253C102.371 607.253 87.9652 596.703 80.7763 579.721C80.4903 579.046 80.4903 578.284 80.7763 577.609C87.9652 560.626 102.372 550.076 118.373 550.076C134.375 550.076 148.781 560.626 155.97 577.609C156.256 578.284 156.256 579.046 155.97 579.721C148.781 596.703 134.375 607.253 118.373 607.253V607.253Z" fill="#BCFBFF"/>
<path d="M80.5618 578.665C80.5618 579.024 80.6333 579.383 80.7763 579.721C87.9649 596.703 102.371 607.253 118.373 607.253C134.375 607.253 148.781 596.703 155.97 579.721C156.113 579.383 156.184 579.024 156.184 578.665H80.5618Z" fill="#7DD5F4"/>
<path d="M131.65 584.082C134.642 584.082 137.068 581.657 137.068 578.665C137.068 575.673 134.642 573.247 131.65 573.247C128.658 573.247 126.232 575.673 126.232 578.665C126.232 581.657 128.658 584.082 131.65 584.082Z" fill="#00347B"/>
<path fill-rule="evenodd" clip-rule="evenodd" d="M126.233 578.665C126.233 581.649 128.666 584.082 131.65 584.082C134.635 584.082 137.068 581.648 137.068 578.665H126.233Z" fill="#001737"/>
<path fill-rule="evenodd" clip-rule="evenodd" d="M219.597 647.775C222.581 647.775 225.015 645.342 225.015 642.357H214.179C214.179 645.342 216.613 647.775 219.597 647.775Z" fill="#001737"/>
<path fill-rule="evenodd" clip-rule="evenodd" d="M126.233 706.394C126.233 706.4 126.232 706.405 126.232 706.412C126.232 709.396 128.665 711.829 131.65 711.829C134.634 711.829 137.067 709.396 137.067 706.412C137.067 706.405 137.066 706.4 137.066 706.394H126.233Z" fill="#001737"/>
<path d="M85.96 228.501C85.6183 228.501 85.2737 228.437 84.944 228.303C83.9211 227.889 83.2515 226.896 83.2515 225.792V179.812C83.2515 178.708 83.9211 177.715 84.944 177.301C85.9683 176.887 87.1392 177.135 87.9067 177.928L110.164 200.918C111.181 201.968 111.181 203.636 110.164 204.686L87.9067 227.677C87.3866 228.214 86.6798 228.501 85.96 228.501V228.501Z" fill="#FDBF00"/>
<path d="M83.2518 202.802V225.792C83.2518 226.896 83.9215 227.889 84.9443 228.303C85.2737 228.437 85.6183 228.501 85.9603 228.501C86.6801 228.501 87.3866 228.214 87.9074 227.677L110.165 204.687C110.674 204.161 110.928 203.482 110.928 202.802H83.2518Z" fill="#FF8856"/>
<path d="M2.70812 292.556C2.37584 292.556 2.04066 292.495 1.71921 292.368C0.682268 291.961 0 290.961 0 289.847V243.866C0 242.752 0.682268 241.751 1.71921 241.344C2.7576 240.937 3.93722 241.207 4.69461 242.023L26.0233 265.014C26.9873 266.053 26.9873 267.66 26.0233 268.699L4.69461 291.689C4.17198 292.253 3.44782 292.556 2.70812 292.556V292.556Z" fill="#FF7038"/>
<path d="M0 266.839V289.846C0 290.961 0.682268 291.961 1.71921 292.368C2.04102 292.494 2.37584 292.555 2.70812 292.555C3.44782 292.555 4.17198 292.252 4.69461 291.689L26.0233 268.699C26.5095 268.175 26.7497 267.506 26.7457 266.839H0Z" fill="#FF1F3D"/>
<path d="M2.70812 164.809C2.37584 164.809 2.04066 164.748 1.71921 164.621C0.682268 164.215 0 163.214 0 162.1V116.119C0 115.005 0.682268 114.004 1.71921 113.598C2.7576 113.19 3.93722 113.461 4.69461 114.277L26.0233 137.267C26.9873 138.306 26.9873 139.913 26.0233 140.952L4.69461 163.942C4.17198 164.506 3.44782 164.809 2.70812 164.809V164.809Z" fill="#7DD5F4"/>
<path d="M0 139.109V162.1C0 163.214 0.682268 164.215 1.71921 164.621C2.04102 164.748 2.37584 164.809 2.70812 164.809C3.44782 164.809 4.17198 164.506 4.69461 163.942L26.0233 140.952C26.5051 140.433 26.7464 139.771 26.7464 139.11H0V139.109Z" fill="#4793FF"/>
<path d="M145.126 232.002C128.37 232.002 113.275 221.227 105.734 203.882C105.435 203.194 105.435 202.411 105.734 201.723C113.276 184.377 128.37 173.603 145.126 173.603C161.883 173.603 176.977 184.378 184.519 201.723C184.818 202.412 184.818 203.194 184.519 203.883C176.977 221.227 161.883 232.002 145.126 232.002V232.002Z" fill="#FFDE46"/>
<path d="M105.51 202.802C105.51 203.17 105.584 203.538 105.734 203.882C113.275 221.227 128.37 232.002 145.126 232.002C161.883 232.002 176.977 221.227 184.518 203.882C184.668 203.538 184.743 203.17 184.743 202.802H105.51V202.802Z" fill="#FFCD00"/>
<path d="M160.364 208.22C163.356 208.22 165.781 205.794 165.781 202.802C165.781 199.81 163.356 197.385 160.364 197.385C157.372 197.385 154.946 199.81 154.946 202.802C154.946 205.794 157.372 208.22 160.364 208.22Z" fill="#00347B"/>
<path d="M59.1395 295.445C43.1378 295.445 28.7318 284.895 21.5429 267.912C21.2569 267.237 21.2569 266.475 21.5429 265.8C28.7315 248.818 43.1378 238.268 59.1395 238.268C75.1416 238.268 89.5476 248.818 96.7365 265.801C97.0222 266.476 97.0222 267.237 96.7365 267.912C89.5479 284.895 75.1416 295.445 59.1395 295.445V295.445Z" fill="#FF936B"/>
<path d="M21.3294 266.839C21.3269 267.204 21.3977 267.569 21.5432 267.912C28.7318 284.895 43.1381 295.445 59.1395 295.445C75.1415 295.445 89.5475 284.895 96.7364 267.912C96.8816 267.569 96.9521 267.204 96.9499 266.839H21.3294Z" fill="#FF6378"/>
<path d="M72.4165 272.274C75.4086 272.274 77.8342 269.848 77.8342 266.856C77.8342 263.864 75.4086 261.439 72.4165 261.439C69.4244 261.439 66.9988 263.864 66.9988 266.856C66.9988 269.848 69.4244 272.274 72.4165 272.274Z" fill="#00347B"/>
<path d="M59.1395 167.698C43.1378 167.698 28.7318 157.148 21.5429 140.165C21.2569 139.49 21.2569 138.728 21.5429 138.053C28.7318 121.071 43.1382 110.521 59.1395 110.521C75.1416 110.521 89.5476 121.071 96.7365 138.054C97.0222 138.729 97.0222 139.49 96.7365 140.165C89.5479 157.148 75.1416 167.698 59.1395 167.698V167.698Z" fill="#BCFBFF"/>
<path d="M21.3284 139.109C21.3284 139.469 21.3999 139.828 21.5429 140.165C28.7315 157.148 43.1378 167.698 59.1395 167.698C75.1416 167.698 89.5476 157.148 96.7365 140.165C96.8795 139.828 96.9507 139.469 96.9507 139.109H21.3284Z" fill="#7DD5F4"/>
<path d="M72.4165 144.527C75.4086 144.527 77.8342 142.101 77.8342 139.109C77.8342 136.117 75.4086 133.692 72.4165 133.692C69.4244 133.692 66.9988 136.117 66.9988 139.109C66.9988 142.101 69.4244 144.527 72.4165 144.527Z" fill="#00347B"/>
<path fill-rule="evenodd" clip-rule="evenodd" d="M66.9994 139.109C66.9994 142.093 69.433 144.527 72.4171 144.527C75.4011 144.527 77.8348 142.093 77.8348 139.109H66.9994Z" fill="#001737"/>
<path fill-rule="evenodd" clip-rule="evenodd" d="M160.364 208.22C163.348 208.22 165.781 205.786 165.781 202.802H154.946C154.946 205.786 157.38 208.22 160.364 208.22Z" fill="#001737"/>
<path fill-rule="evenodd" clip-rule="evenodd" d="M66.9995 266.839C66.9995 266.845 66.9984 266.85 66.9984 266.856C66.9984 269.84 69.432 272.274 72.4161 272.274C75.4002 272.274 77.8338 269.84 77.8338 266.856C77.8338 266.85 77.8331 266.845 77.8331 266.839H66.9995Z" fill="#001737"/>
<path d="M738.972 151.931C738.631 151.931 738.286 151.866 737.956 151.733C736.933 151.319 736.264 150.326 736.264 149.222V103.242C736.264 102.138 736.933 101.145 737.956 100.731C738.981 100.317 740.152 100.565 740.919 101.358L763.177 124.348C764.193 125.398 764.193 127.066 763.177 128.116L740.919 151.107C740.399 151.644 739.692 151.931 738.972 151.931V151.931Z" fill="#FDBF00"/>
<path d="M736.264 126.232V149.222C736.264 150.326 736.934 151.319 737.957 151.733C738.286 151.867 738.631 151.931 738.973 151.931C739.692 151.931 740.399 151.644 740.92 151.107L763.177 128.116C763.686 127.591 763.94 126.912 763.94 126.232H736.264Z" fill="#FF8856"/>
<path d="M655.72 215.986C655.388 215.986 655.053 215.925 654.731 215.798C653.695 215.392 653.012 214.391 653.012 213.277V167.296C653.012 166.182 653.695 165.181 654.731 164.774C655.77 164.367 656.949 164.637 657.707 165.453L679.036 188.444C680 189.483 680 191.09 679.036 192.129L657.707 215.119C657.184 215.683 656.46 215.986 655.72 215.986V215.986Z" fill="#FF7038"/>
<path d="M653.012 190.269V213.276C653.012 214.391 653.695 215.391 654.731 215.798C655.053 215.924 655.388 215.985 655.72 215.985C656.46 215.985 657.184 215.682 657.707 215.119L679.036 192.129C679.522 191.605 679.762 190.936 679.758 190.269H653.012Z" fill="#FF1F3D"/>
<path d="M655.72 88.2387C655.388 88.2387 655.053 88.1777 654.731 88.0513C653.695 87.6446 653.012 86.6438 653.012 85.5299V39.5492C653.012 38.4353 653.695 37.4345 654.731 37.0278C655.77 36.6201 656.949 36.8906 657.707 37.7069L679.036 60.697C680 61.7361 680 63.3426 679.036 64.3818L657.707 87.3719C657.184 87.9357 656.46 88.2387 655.72 88.2387V88.2387Z" fill="#7DD5F4"/>
<path d="M653.012 62.5393V85.5298C653.012 86.6437 653.695 87.6445 654.731 88.0512C655.053 88.1776 655.388 88.2387 655.72 88.2387C656.46 88.2387 657.184 87.9356 657.707 87.3722L679.036 64.382C679.517 63.8627 679.759 63.201 679.759 62.5397H653.012V62.5393Z" fill="#4793FF"/>
<path d="M798.139 155.433C781.382 155.433 766.288 144.657 758.747 127.313C758.447 126.624 758.447 125.841 758.747 125.153C766.288 107.807 781.382 97.0327 798.139 97.0327C814.895 97.0327 829.989 107.808 837.531 125.153C837.83 125.842 837.83 126.624 837.531 127.313C829.989 144.657 814.895 155.433 798.139 155.433V155.433Z" fill="#FFDE46"/>
<path d="M758.522 126.232C758.522 126.6 758.597 126.968 758.746 127.312C766.288 144.657 781.382 155.432 798.138 155.432C814.895 155.432 829.989 144.657 837.53 127.312C837.68 126.968 837.755 126.6 837.755 126.232H758.522V126.232Z" fill="#FFCD00"/>
<path d="M813.376 131.65C816.368 131.65 818.794 129.224 818.794 126.232C818.794 123.24 816.368 120.815 813.376 120.815C810.384 120.815 807.958 123.24 807.958 126.232C807.958 129.224 810.384 131.65 813.376 131.65Z" fill="#00347B"/>
<path d="M712.152 218.875C696.15 218.875 681.744 208.325 674.555 191.342C674.269 190.667 674.269 189.905 674.555 189.23C681.744 172.247 696.15 161.698 712.152 161.698C728.154 161.698 742.56 172.247 749.749 189.23C750.034 189.906 750.034 190.667 749.749 191.342C742.56 208.325 728.154 218.875 712.152 218.875V218.875Z" fill="#FF936B"/>
<path d="M674.342 190.269C674.339 190.634 674.41 190.999 674.556 191.342C681.744 208.325 696.15 218.875 712.152 218.875C728.154 218.875 742.56 208.325 749.749 191.342C749.894 190.999 749.964 190.634 749.962 190.269H674.342Z" fill="#FF6378"/>
<path d="M725.429 195.704C728.421 195.704 730.846 193.278 730.846 190.286C730.846 187.294 728.421 184.869 725.429 184.869C722.437 184.869 720.011 187.294 720.011 190.286C720.011 193.278 722.437 195.704 725.429 195.704Z" fill="#00347B"/>
<path d="M712.152 91.1277C696.15 91.1277 681.744 80.578 674.555 63.5953C674.269 62.9203 674.269 62.1582 674.555 61.4831C681.744 44.5005 696.15 33.9508 712.152 33.9508C728.154 33.9508 742.56 44.5005 749.749 61.4835C750.034 62.1586 750.034 62.9203 749.749 63.5953C742.56 80.578 728.154 91.1277 712.152 91.1277V91.1277Z" fill="#BCFBFF"/>
<path d="M674.341 62.5393C674.341 62.8987 674.412 63.2577 674.555 63.5954C681.744 80.578 696.15 91.1277 712.152 91.1277C728.154 91.1277 742.56 80.578 749.749 63.5954C749.892 63.2581 749.963 62.8987 749.963 62.5393H674.341Z" fill="#7DD5F4"/>
<path d="M725.429 67.957C728.421 67.957 730.846 65.5314 730.846 62.5393C730.846 59.5472 728.421 57.1216 725.429 57.1216C722.437 57.1216 720.011 59.5472 720.011 62.5393C720.011 65.5314 722.437 67.957 725.429 67.957Z" fill="#00347B"/>
<path fill-rule="evenodd" clip-rule="evenodd" d="M720.012 62.5393C720.012 65.5234 722.445 67.957 725.429 67.957C728.413 67.957 730.847 65.523 730.847 62.5393H720.012Z" fill="#001737"/>
<path fill-rule="evenodd" clip-rule="evenodd" d="M813.376 131.65C816.36 131.65 818.794 129.216 818.794 126.232H807.958C807.958 129.216 810.392 131.65 813.376 131.65Z" fill="#001737"/>
<path fill-rule="evenodd" clip-rule="evenodd" d="M720.012 190.269C720.012 190.275 720.011 190.28 720.011 190.286C720.011 193.27 722.444 195.704 725.428 195.704C728.412 195.704 730.846 193.27 730.846 190.286C730.846 190.28 730.845 190.275 730.845 190.269H720.012Z" fill="#001737"/>
<path d="M346.37 117.98C346.029 117.98 345.684 117.916 345.354 117.782C344.331 117.369 343.662 116.375 343.662 115.271V69.2912C343.662 68.1874 344.331 67.1942 345.354 66.7803C346.379 66.366 347.55 66.6145 348.317 67.4069L370.575 90.3971C371.591 91.4474 371.591 93.1149 370.575 94.1656L348.317 117.156C347.797 117.693 347.09 117.98 346.37 117.98V117.98Z" fill="#FDBF00"/>
<path d="M343.662 92.2812V115.271C343.662 116.375 344.332 117.368 345.355 117.782C345.684 117.916 346.029 117.98 346.371 117.98C347.09 117.98 347.797 117.693 348.318 117.156L370.575 94.1655C371.084 93.6404 371.338 92.961 371.338 92.2812H343.662Z" fill="#FF8856"/>
<path d="M263.118 182.035C262.786 182.035 262.451 181.974 262.13 181.847C261.093 181.441 260.41 180.44 260.41 179.326V133.345C260.41 132.231 261.093 131.23 262.13 130.823C263.168 130.416 264.348 130.686 265.105 131.503L286.434 154.493C287.398 155.532 287.398 157.139 286.434 158.178L265.105 181.168C264.582 181.732 263.858 182.035 263.118 182.035V182.035Z" fill="#FF7038"/>
<path d="M260.41 156.318V179.326C260.41 180.44 261.093 181.44 262.13 181.847C262.451 181.973 262.786 182.034 263.118 182.034C263.858 182.034 264.582 181.731 265.105 181.168L286.434 158.178C286.92 157.654 287.16 156.985 287.156 156.318H260.41Z" fill="#FF1F3D"/>
<path d="M263.118 54.2878C262.786 54.2878 262.451 54.2268 262.13 54.1003C261.093 53.6937 260.41 52.6928 260.41 51.579V5.5983C260.41 4.48442 261.093 3.48359 262.13 3.07691C263.168 2.66913 264.348 2.93966 265.105 3.75592L286.434 26.7461C287.398 27.7852 287.398 29.3917 286.434 30.4308L265.105 53.421C264.582 53.9848 263.858 54.2878 263.118 54.2878V54.2878Z" fill="#7DD5F4"/>
<path d="M260.41 28.5885V51.579C260.41 52.6929 261.093 53.6937 262.13 54.1004C262.451 54.2268 262.786 54.2879 263.118 54.2879C263.858 54.2879 264.582 53.9848 265.105 53.4214L286.434 30.4312C286.915 29.9119 287.157 29.2502 287.157 28.5889H260.41V28.5885Z" fill="#4793FF"/>
<path d="M405.537 121.482C388.78 121.482 373.686 110.707 366.145 93.3616C365.845 92.6728 365.845 91.8905 366.145 91.2018C373.686 73.8565 388.78 63.0818 405.537 63.0818C422.293 63.0818 437.387 73.8569 444.929 91.2018C445.228 91.8909 445.228 92.6732 444.929 93.362C437.387 110.707 422.293 121.482 405.537 121.482V121.482Z" fill="#FFDE46"/>
<path d="M365.92 92.2814C365.92 92.6491 365.995 93.0167 366.145 93.3613C373.686 110.706 388.78 121.481 405.537 121.481C422.293 121.481 437.388 110.706 444.929 93.3613C445.078 93.0167 445.153 92.649 445.153 92.281H365.92V92.2814Z" fill="#FFCD00"/>
<path d="M420.774 97.699C423.766 97.699 426.192 95.2734 426.192 92.2813C426.192 89.2892 423.766 86.8636 420.774 86.8636C417.782 86.8636 415.356 89.2892 415.356 92.2813C415.356 95.2734 417.782 97.699 420.774 97.699Z" fill="#00347B"/>
<path d="M319.55 184.924C303.548 184.924 289.142 174.374 281.953 157.391C281.667 156.716 281.667 155.954 281.953 155.279C289.142 138.297 303.548 127.747 319.55 127.747C335.552 127.747 349.958 138.297 357.147 155.28C357.433 155.955 357.433 156.716 357.147 157.391C349.958 174.374 335.552 184.924 319.55 184.924V184.924Z" fill="#FF936B"/>
<path d="M281.74 156.318C281.737 156.683 281.808 157.048 281.954 157.392C289.142 174.374 303.548 184.924 319.55 184.924C335.552 184.924 349.958 174.374 357.147 157.392C357.292 157.048 357.362 156.683 357.36 156.318H281.74Z" fill="#FF6378"/>
<path d="M332.827 161.753C335.819 161.753 338.244 159.328 338.244 156.335C338.244 153.343 335.819 150.918 332.827 150.918C329.835 150.918 327.409 153.343 327.409 156.335C327.409 159.328 329.835 161.753 332.827 161.753Z" fill="#00347B"/>
<path d="M319.55 57.1769C303.548 57.1769 289.142 46.6272 281.953 29.6445C281.667 28.9695 281.667 28.2074 281.953 27.5323C289.142 10.5497 303.549 0 319.55 0C335.552 0 349.958 10.5497 357.147 27.5327C357.433 28.2077 357.433 28.9695 357.147 29.6445C349.958 46.6272 335.552 57.1769 319.55 57.1769V57.1769Z" fill="#BCFBFF"/>
<path d="M281.739 28.5885C281.739 28.9479 281.81 29.3069 281.953 29.6446C289.142 46.6272 303.548 57.1769 319.55 57.1769C335.552 57.1769 349.958 46.6272 357.147 29.6446C357.29 29.3072 357.361 28.9479 357.361 28.5885H281.739Z" fill="#7DD5F4"/>
<path d="M332.827 34.0062C335.819 34.0062 338.244 31.5806 338.244 28.5885C338.244 25.5964 335.819 23.1708 332.827 23.1708C329.835 23.1708 327.409 25.5964 327.409 28.5885C327.409 31.5806 329.835 34.0062 332.827 34.0062Z" fill="#00347B"/>
<path fill-rule="evenodd" clip-rule="evenodd" d="M327.41 28.5885C327.41 31.5726 329.843 34.0062 332.827 34.0062C335.811 34.0062 338.245 31.5722 338.245 28.5885H327.41Z" fill="#001737"/>
<path fill-rule="evenodd" clip-rule="evenodd" d="M420.774 97.6989C423.758 97.6989 426.192 95.2653 426.192 92.2812H415.356C415.356 95.2653 417.79 97.6989 420.774 97.6989Z" fill="#001737"/>
<path fill-rule="evenodd" clip-rule="evenodd" d="M327.41 156.318C327.41 156.324 327.409 156.329 327.409 156.335C327.409 159.32 329.842 161.753 332.826 161.753C335.81 161.753 338.244 159.32 338.244 156.335C338.244 156.329 338.243 156.324 338.243 156.318H327.41Z" fill="#001737"/>
<path d="M868.997 374.779C868.655 374.779 868.311 374.714 867.981 374.581C866.958 374.167 866.288 373.174 866.288 372.07V326.09C866.288 324.986 866.958 323.993 867.981 323.579C869.005 323.165 870.176 323.413 870.944 324.205L893.201 347.196C894.218 348.246 894.218 349.913 893.201 350.964L870.944 373.954C870.423 374.492 869.717 374.779 868.997 374.779V374.779Z" fill="#FDBF00"/>
<path d="M866.289 349.08V372.07C866.289 373.174 866.958 374.167 867.981 374.581C868.311 374.714 868.655 374.779 868.997 374.779C869.717 374.779 870.423 374.492 870.944 373.954L893.202 350.964C893.711 350.439 893.965 349.76 893.965 349.08H866.289Z" fill="#FF8856"/>
<path d="M785.745 438.833C785.413 438.833 785.078 438.772 784.756 438.646C783.719 438.239 783.037 437.239 783.037 436.124V390.143C783.037 389.03 783.719 388.029 784.756 387.622C785.794 387.214 786.974 387.485 787.731 388.301L809.06 411.292C810.024 412.331 810.024 413.937 809.06 414.976L787.731 437.967C787.209 438.53 786.485 438.833 785.745 438.833V438.833Z" fill="#FF7038"/>
<path d="M783.037 413.116V436.124C783.037 437.238 783.719 438.239 784.756 438.645C785.078 438.772 785.413 438.833 785.745 438.833C786.485 438.833 787.209 438.53 787.731 437.966L809.06 414.976C809.546 414.452 809.787 413.783 809.783 413.116H783.037Z" fill="#FF1F3D"/>
<path d="M785.745 311.086C785.413 311.086 785.078 311.025 784.756 310.899C783.719 310.492 783.037 309.491 783.037 308.377V262.397C783.037 261.283 783.719 260.282 784.756 259.875C785.794 259.468 786.974 259.738 787.731 260.554L809.06 283.545C810.024 284.584 810.024 286.19 809.06 287.229L787.731 310.219C787.209 310.783 786.485 311.086 785.745 311.086V311.086Z" fill="#7DD5F4"/>
<path d="M783.037 285.387V308.377C783.037 309.491 783.719 310.492 784.756 310.899C785.078 311.025 785.413 311.086 785.745 311.086C786.485 311.086 787.209 310.783 787.731 310.22L809.06 287.23C809.542 286.71 809.783 286.049 809.783 285.387H783.037V285.387Z" fill="#4793FF"/>
<path d="M928.163 378.28C911.406 378.28 896.312 367.505 888.771 350.16C888.472 349.471 888.472 348.689 888.771 348C896.312 330.655 911.407 319.88 928.163 319.88C944.92 319.88 960.014 330.655 967.555 348C967.855 348.689 967.855 349.472 967.555 350.161C960.014 367.505 944.92 378.28 928.163 378.28V378.28Z" fill="#FFDE46"/>
<path d="M888.546 349.08C888.546 349.448 888.621 349.815 888.771 350.16C896.312 367.505 911.407 378.28 928.163 378.28C944.92 378.28 960.014 367.505 967.555 350.16C967.705 349.815 967.78 349.448 967.78 349.079H888.546V349.08Z" fill="#FFCD00"/>
<path d="M943.4 354.498C946.393 354.498 948.818 352.072 948.818 349.08C948.818 346.088 946.393 343.662 943.4 343.662C940.408 343.662 937.983 346.088 937.983 349.08C937.983 352.072 940.408 354.498 943.4 354.498Z" fill="#00347B"/>
<path d="M842.176 441.722C826.175 441.722 811.769 431.173 804.58 414.19C804.294 413.515 804.294 412.753 804.58 412.078C811.768 395.095 826.175 384.545 842.176 384.545C858.178 384.545 872.584 395.095 879.773 412.078C880.059 412.753 880.059 413.515 879.773 414.19C872.585 431.173 858.178 441.722 842.176 441.722V441.722Z" fill="#FF936B"/>
<path d="M804.366 413.116C804.364 413.481 804.435 413.847 804.58 414.19C811.769 431.173 826.175 441.722 842.176 441.722C858.178 441.722 872.584 431.173 879.773 414.19C879.919 413.847 879.989 413.481 879.987 413.116H804.366Z" fill="#FF6378"/>
<path d="M855.453 418.552C858.445 418.552 860.871 416.126 860.871 413.134C860.871 410.142 858.445 407.716 855.453 407.716C852.461 407.716 850.036 410.142 850.036 413.134C850.036 416.126 852.461 418.552 855.453 418.552Z" fill="#00347B"/>
<path d="M842.176 313.975C826.175 313.975 811.769 303.426 804.58 286.443C804.294 285.768 804.294 285.006 804.58 284.331C811.769 267.348 826.175 256.799 842.176 256.799C858.178 256.799 872.584 267.348 879.773 284.331C880.059 285.006 880.059 285.768 879.773 286.443C872.585 303.426 858.178 313.975 842.176 313.975V313.975Z" fill="#BCFBFF"/>
<path d="M804.365 285.387C804.365 285.746 804.437 286.105 804.58 286.443C811.768 303.426 826.175 313.975 842.176 313.975C858.178 313.975 872.584 303.426 879.773 286.443C879.916 286.106 879.987 285.746 879.987 285.387H804.365Z" fill="#7DD5F4"/>
<path d="M855.453 290.805C858.445 290.805 860.871 288.379 860.871 285.387C860.871 282.395 858.445 279.969 855.453 279.969C852.461 279.969 850.036 282.395 850.036 285.387C850.036 288.379 852.461 290.805 855.453 290.805Z" fill="#00347B"/>
<path fill-rule="evenodd" clip-rule="evenodd" d="M850.036 285.387C850.036 288.371 852.47 290.805 855.454 290.805C858.438 290.805 860.872 288.371 860.872 285.387H850.036Z" fill="#001737"/>
<path fill-rule="evenodd" clip-rule="evenodd" d="M943.4 354.498C946.385 354.498 948.818 352.064 948.818 349.08H937.983C937.983 352.064 940.417 354.498 943.4 354.498Z" fill="#001737"/>
<path fill-rule="evenodd" clip-rule="evenodd" d="M850.036 413.116C850.036 413.122 850.035 413.128 850.035 413.134C850.035 416.118 852.469 418.552 855.453 418.552C858.437 418.552 860.871 416.118 860.871 413.134C860.871 413.128 860.87 413.122 860.87 413.116H850.036Z" fill="#001737"/>
<defs>
<clipPath id="clip0">
<rect x="193.231" y="318.199" width="184.924" height="184.924" fill="white"/>
</clipPath>
</defs>
</svg>
