<svg width="5761" height="809" viewBox="0 0 5761 809" fill="none" xmlns="http://www.w3.org/2000/svg">
<path d="M8.5 643C155.167 494.5 544.9 227.2 930.5 346C1412.5 494.5 1376.5 673 1713 697.5C2049.5 722 2186 621.5 2334.5 467C2483 312.5 2552.5 -9.50004 2710.5 8.99996C2868.5 27.5 2899 42.5 2965.5 82C3032 121.5 3202 403 3356.5 421.5C3511 440 3708.5 546.5 3854 534C3999.5 521.5 4367 607 4448.5 725C4530 843 5145.5 807 5276 725C5406.5 643 5707 519 5752.5 588.5" stroke="white" stroke-width="16" stroke-linecap="round" stroke-linejoin="round" stroke-dasharray="10 40"/>
</svg>
