<svg height="480pt" viewBox="0 0 480 480" width="480pt" xmlns="http://www.w3.org/2000/svg"><path d="m432 232v42.335938c0 18.183593-10.273438 34.800781-26.535156 42.9375l-53.464844 26.726562h-224l-53.464844-26.734375c-16.261718-8.128906-26.535156-24.753906-26.535156-42.929687v-42.335938" fill="#efbe9a"/><path d="m416 120h14.679688c27.242187 0 49.320312 22.078125 49.320312 49.320312 0 14.398438-6.289062 28.070313-17.222656 37.449219l-150.777344 129.230469h-144l-150.777344-129.238281c-10.933594-9.371094-17.222656-23.050781-17.222656-37.441407 0-27.242187 22.078125-49.320312 49.320312-49.320312h14.679688" fill="#db9b7c"/><path d="m360 72h4.777344c32.710937 0 59.222656 26.511719 59.222656 59.222656 0 13.449219-4.574219 26.496094-12.976562 37l-115.023438 143.777344h-112l-115.023438-143.777344c-8.402343-10.503906-12.976562-23.550781-12.976562-37 0-32.710937 26.511719-59.222656 59.222656-59.222656h4.777344" fill="#efbe9a"/><path d="m296 32h4c33.136719 0 60 26.863281 60 60 0 7.921875-1.566406 15.769531-4.617188 23.078125l-75.382812 180.921875h-80l-75.382812-180.921875c-3.050782-7.308594-4.617188-15.15625-4.617188-23.078125 0-33.136719 26.863281-60 60-60h4" fill="#db9b7c"/><path d="m224 296-40-232v-32c0-17.671875 14.328125-32 32-32h48c17.671875 0 32 14.328125 32 32v32l-40 232" fill="#efbe9a"/><path d="m314.792969 339.566406c95.925781 9.425782 165.207031 36.503906 165.207031 68.433594 0 39.769531-107.449219 72-240 72s-240-32.230469-240-72c0-31.929688 69.28125-59.007812 165.207031-68.433594" fill="#976947"/><path d="m320 368c0 44.183594-35.816406 80-80 80s-80-35.816406-80-80 35.816406-80 80-80 80 35.816406 80 80zm0 0" fill="#e8eff4"/><path d="m240 480c132.550781 0 240-32.230469 240-72l-51.9375 14.167969c-23.933594 6.519531-48.628906 9.832031-73.445312 9.832031-33.472657 0-66.671876-6.023438-98.015626-17.777344l-33.210937-12.453125c-31.335937-11.746093-64.535156-17.769531-98.007813-17.769531-24.808593 0-49.511718 3.304688-73.445312 9.832031l-51.9375 14.167969c0 39.769531 107.449219 72 240 72zm0 0" fill="#c18e59"/><path d="m296 368h-16c0-22.054688-17.945312-40-40-40v-16c30.878906 0 56 25.128906 56 56zm0 0" fill="#fff"/></svg>